<?xml version="1.0" standalone="no"?>
<!DOCTYPE svg PUBLIC "-//W3C//DTD SVG 20010904//EN"
 "http://www.w3.org/TR/2001/REC-SVG-20010904/DTD/svg10.dtd">
<svg version="1.0" xmlns="http://www.w3.org/2000/svg"
 width="250.000000pt" height="141.000000pt" viewBox="0 0 250.000000 141.000000"
 preserveAspectRatio="xMidYMid meet">

<g transform="translate(0.000000,141.000000) scale(0.100000,-0.100000)"
fill="#000000" stroke="none">
<path d="M1376 920 c-76 -15 -122 -102 -92 -174 24 -57 55 -70 173 -74 96 -4
105 -6 119 -28 20 -29 10 -62 -23 -75 -13 -5 -78 -9 -144 -9 l-119 0 0 -36 0
-35 156 3 156 3 28 32 c54 60 48 151 -13 197 -23 17 -47 22 -135 26 -59 3
-113 9 -119 13 -20 13 -16 65 6 77 11 5 76 10 145 10 l126 0 0 40 0 40 -112
-1 c-62 -1 -131 -5 -152 -9z"/>
<path d="M1825 918 c-2 -7 -38 -107 -78 -221 l-74 -208 40 3 c36 3 42 7 52 38
l12 35 100 3 100 3 12 -41 c11 -38 14 -40 52 -40 34 0 39 3 35 18 -4 9 -39
107 -79 217 l-72 200 -48 3 c-32 2 -49 -1 -52 -10z m84 -168 c12 -41 24 -83
27 -92 5 -16 -3 -18 -61 -18 -50 0 -66 3 -62 13 2 6 17 51 33 99 15 49 31 85
35 80 3 -4 16 -41 28 -82z"/>
<path d="M440 706 l0 -216 40 0 40 0 1 108 0 107 37 -105 37 -105 49 0 49 0
38 105 38 105 0 -107 1 -108 35 0 35 0 0 215 0 215 -38 0 -38 0 -59 -169 c-33
-94 -61 -169 -62 -167 -2 2 -29 77 -61 167 l-58 164 -42 3 -42 3 0 -215z"/>
<path d="M890 705 l0 -215 175 0 175 0 0 40 0 40 -140 0 -140 0 0 50 0 50 140
0 140 0 0 40 0 40 -141 0 -140 0 3 48 3 47 138 3 137 3 0 34 0 35 -175 0 -175
0 0 -215z"/>
</g>
</svg>
